<svg width="100" height="100" viewBox="0 0 100 100" fill="none" xmlns="http://www.w3.org/2000/svg">
<circle cx="50" cy="50" r="50" fill="black"/>
<path d="M32.52 54H35.744L37.018 49.944H44.402L45.689 54H48.913L43.011 35.28H38.422L32.52 54ZM37.941 47.019L40.684 38.309L43.466 47.019H37.941ZM61.0184 54H64.1904V46.33L70.5474 35.28H66.8944L62.6044 42.742L58.3014 35.28H54.6484L61.0184 46.33V54Z" fill="white"/>
<path d="M32.7949 67V59.1797H35.1045C35.7956 59.1797 36.4079 59.3337 36.9414 59.6416C37.4785 59.9495 37.8939 60.3864 38.1875 60.9521C38.4811 61.5179 38.6279 62.166 38.6279 62.8965V63.2886C38.6279 64.0298 38.4793 64.6815 38.1821 65.2437C37.8885 65.8058 37.4678 66.2391 36.9199 66.5435C36.3757 66.8478 35.7508 67 35.0454 67H32.7949ZM34.1538 60.2754V65.915H35.04C35.7526 65.915 36.2987 65.693 36.6782 65.249C37.0614 64.8014 37.2565 64.1605 37.2637 63.3262V62.8911C37.2637 62.0425 37.0793 61.3944 36.7104 60.9468C36.3416 60.4992 35.8063 60.2754 35.1045 60.2754H34.1538ZM44.5522 63.5088H41.3403V65.915H45.0947V67H39.9814V59.1797H45.0571V60.2754H41.3403V62.4346H44.5522V63.5088ZM50.2886 64.9858C50.2886 64.6421 50.1668 64.3771 49.9233 64.1909C49.6834 64.0047 49.2484 63.8167 48.6182 63.627C47.988 63.4372 47.4867 63.2259 47.1143 62.9932C46.4017 62.5456 46.0454 61.9619 46.0454 61.2422C46.0454 60.612 46.3014 60.0928 46.8135 59.6846C47.3291 59.2764 47.9969 59.0723 48.8169 59.0723C49.3612 59.0723 49.8464 59.1725 50.2725 59.373C50.6986 59.5736 51.0334 59.86 51.2769 60.2324C51.5203 60.6012 51.6421 61.0112 51.6421 61.4624H50.2886C50.2886 61.0542 50.1597 60.7355 49.9019 60.5063C49.6476 60.2736 49.2824 60.1572 48.8062 60.1572C48.3621 60.1572 48.0166 60.2521 47.7695 60.4419C47.526 60.6317 47.4043 60.8966 47.4043 61.2368C47.4043 61.5233 47.5368 61.7632 47.8018 61.9565C48.0667 62.1463 48.5036 62.3325 49.1123 62.5151C49.721 62.6942 50.2098 62.9001 50.5786 63.1328C50.9474 63.362 51.2178 63.627 51.3896 63.9277C51.5615 64.2249 51.6475 64.5741 51.6475 64.9751C51.6475 65.6268 51.3968 66.146 50.8955 66.5327C50.3978 66.9159 49.721 67.1074 48.8652 67.1074C48.2995 67.1074 47.7785 67.0036 47.3022 66.7959C46.8296 66.5846 46.4608 66.2946 46.1958 65.9258C45.9344 65.557 45.8037 65.1273 45.8037 64.6367H47.1626C47.1626 65.0807 47.3094 65.4245 47.603 65.668C47.8966 65.9115 48.3174 66.0332 48.8652 66.0332C49.3379 66.0332 49.6924 65.9383 49.9287 65.7485C50.1686 65.5552 50.2886 65.3009 50.2886 64.9858ZM54.2739 67H52.9204V59.1797H54.2739V67ZM61.9385 65.9849C61.6556 66.3537 61.2635 66.633 60.7622 66.8228C60.2609 67.0125 59.6916 67.1074 59.0542 67.1074C58.3989 67.1074 57.8188 66.9588 57.314 66.6616C56.8091 66.3644 56.4188 65.9401 56.1431 65.3887C55.8709 64.8337 55.7295 64.1873 55.7188 63.4497V62.8374C55.7188 61.6558 56.0016 60.7337 56.5674 60.0713C57.1331 59.4053 57.9227 59.0723 58.936 59.0723C59.8062 59.0723 60.4972 59.2871 61.0093 59.7168C61.5213 60.1465 61.8293 60.766 61.9331 61.5752H60.6011C60.4507 60.6335 59.9046 60.1626 58.9629 60.1626C58.3542 60.1626 57.8905 60.3828 57.5718 60.8232C57.2567 61.2601 57.0938 61.9028 57.083 62.7515V63.353C57.083 64.1981 57.2603 64.8551 57.6147 65.3242C57.9728 65.7897 58.4688 66.0225 59.1025 66.0225C59.7972 66.0225 60.2913 65.8649 60.585 65.5498V64.019H58.9736V62.9878H61.9385V65.9849ZM69.6353 67H68.2764L64.7905 61.4517V67H63.4316V59.1797H64.7905L68.2871 64.7495V59.1797H69.6353V67Z" fill="#858585"/>
<path fill-rule="evenodd" clip-rule="evenodd" d="M42.2653 94.6586C25.6146 87.2757 14 70.6013 14 51.2143C14 30.0742 27.8102 12.1595 46.9009 6C24.4489 8.5322 7 27.5855 7 50.7143C7 72.2245 22.0922 90.2098 42.2653 94.6586Z" fill="white"/>
</svg>
